<?xml version="1.0" encoding="UTF-8"?>
<!-- Created with Inkscape (http://www.inkscape.org/) -->
<svg width="135.1mm" height="177.4mm" version="1.1" viewBox="0 0 135.1 177.4" xmlns="http://www.w3.org/2000/svg" xmlns:cc="http://creativecommons.org/ns#" xmlns:dc="http://purl.org/dc/elements/1.1/" xmlns:rdf="http://www.w3.org/1999/02/22-rdf-syntax-ns#">
 <metadata>
  <rdf:RDF>
   <cc:Work rdf:about="">
    <dc:format>image/svg+xml</dc:format>
    <dc:type rdf:resource="http://purl.org/dc/dcmitype/StillImage"/>
    <dc:title/>
   </cc:Work>
  </rdf:RDF>
 </metadata>
 <g transform="translate(-9.5233 -37.555)">
  <g transform="matrix(1.6929 0 0 1.6929 -1252.4 758.23)" stroke="#0cf">
   <g fill="#0cf" stroke-width="1.3">
    <path d="m772.97-321.96c-12.547-1.0308-23.931-5.8335-26.363-13.031-1.2021-3.5571-0.35368-48.393 1.3516-57.618 2.2875-12.374 11.062-24.208 21.485-28.977 5.1366-2.3501 7.2032-3.4596 15.578-3.4596 8.2593 0 10.471 1.1235 15.298 3.3333 9.6407 4.4137 18.878 16.241 21.684 27.765 0.5969 2.4511 1.5072 15.823 2.0229 29.715 1.134 30.545 1.003 31.218-7.0066 36.019-3.0243 1.8128-7.7487 3.9168-10.499 4.6754-6.2994 1.7379-22.393 2.4948-33.552 1.578z"/>
    <path d="m775.07-375.55c4.3134-5.1974 13.936-5.7332 18.826-1.0483 3.2602 3.1235 5.1193 3.3466 5.1193 0.61427 0-2.3932-3.1145-5.7128-6.605-7.0399-7.0413-2.6771-18.683 0.0379-20.485 4.7772-1.4913 3.9224 0.62307 5.7355 3.1449 2.6968z"/>
    <path d="m769.82-391.19c0.93333-0.93333 1.4667-0.93333 2.4 0 0.66 0.66 1.785 1.2 2.5 1.2 1.58 0 1.7202-3.1798 0.2069-4.6931-0.7908-0.7908-0.61141-1.8282 0.64866-3.7513 2.3444-3.578 0.49937-5.8202-2.5319-3.0769-1.9615 1.7751-2.0857 1.7751-4.0473 0-3.0313-2.7433-4.8763-0.5011-2.5319 3.0769 1.2601 1.9231 1.4395 2.9605 0.64866 3.7513-1.5133 1.5133-1.5293 5.0056 0.0507 5.0056 0.715 0 1.9962-0.8525 2.6562-1.5125z"/>
    <path d="m798.82-391.19c0.93333-0.93333 1.4667-0.93333 2.4 0 0.66 0.66 1.785 1.2 2.5 1.2 1.58 0 1.7202-3.1798 0.2069-4.6931-0.7908-0.7908-0.6114-1.8282 0.6487-3.7513 2.3444-3.578 0.4993-5.8202-2.532-3.0769-1.9615 1.7751-2.0857 1.7751-4.0473 0-3.0313-2.7433-4.8763-0.5011-2.5319 3.0769 1.2601 1.9231 1.4394 2.9605 0.64866 3.7513-1.5133 1.5133-1.3731 4.6931 0.2069 4.6931 0.715 0 1.84-0.54 2.5-1.2z"/>
   </g>
   <g stroke-width=".1149">
    <path d="m766.88-390.59c-0.21997-0.33572-0.26899-1.2475-0.10465-1.9467 0.17258-0.73425 0.38639-1.1646 0.83774-1.686 0.50065-0.57846 0.66413-1.0678 0.6099-1.8257-0.0481-0.6725-0.38887-1.4564-1.3058-3.0042-0.58495-0.98733-0.79496-1.5686-0.79496-2.2001 0-0.57366 0.15712-0.80588 0.54527-0.80588 0.39695 0 1.2474 0.51599 2.1804 1.323 1.8986 1.6421 2.4378 1.6424 4.3454 2e-3 1.3869-1.1924 2.285-1.582 2.6024-1.1288 0.35974 0.51359 0.0507 1.6228-0.89387 3.2087-0.82011 1.3769-1.102 2.0974-1.1063 2.8277-4e-3 0.63379 0.1403 1.0103 0.59124 1.5453 0.72057 0.85494 1.0558 2.0148 0.8411 2.9099-0.15096 0.62926-0.3312 0.76332-0.85046 0.63257-0.60477-0.15228-1.0109-0.38393-1.7318-0.98774-0.8276-0.69316-1.0782-0.82021-1.6178-0.82021-0.55832 0-0.88339 0.16984-1.7367 0.90735-0.80981 0.69992-1.5293 1.1868-1.9551 1.2559-0.26477 0.043-0.33435-0.0218-0.45592-0.20731z" opacity=".96"/>
    <path d="m796.02-390.87c-0.53965-0.68604-0.28409-2.247 0.53287-3.2547 0.62064-0.76556 0.7163-1.0275 0.66777-1.8282-0.0476-0.78521-0.23932-1.2764-0.98303-2.5186-0.81626-1.3634-1.0483-1.9166-1.0986-2.6192-0.0361-0.50485-0.0161-0.64241 0.11452-0.78674 0.371-0.40995 1.2438-0.0242 2.5951 1.1469 1.8965 1.6436 2.4558 1.6436 4.3523 0 1.3513-1.1711 2.2241-1.5569 2.5951-1.1469 0.13037 0.14406 0.15064 0.28195 0.11488 0.78172-0.0512 0.71628-0.26246 1.2158-1.127 2.6655-0.72059 1.2083-0.97493 1.9065-0.97493 2.6761 0 0.64772 0.12734 0.94253 0.72121 1.6698 0.53289 0.65262 0.73424 1.2458 0.7359 2.168 1e-3 0.60352-0.0299 0.76389-0.18813 0.97228-0.15752 0.20752-0.24659 0.24587-0.52893 0.22769-0.48582-0.0313-1.2035-0.41064-1.8827-0.99519-0.76834-0.66129-1.0991-0.82817-1.6416-0.82817-0.54257 0-0.87324 0.16687-1.6423 0.8288-0.6166 0.53068-1.3198 0.91503-1.8588 1.0159-0.27697 0.0519-0.34351 0.0287-0.50375-0.17498z" opacity=".96"/>
    <path d="m772.32-374.93c-0.53722-0.8199-0.0694-3.1418 1.0591-4.3594 1.1584-1.3052 3.5748-2.5613 6.3094-3.2798 4.9578-1.3026 10.154-1.0487 13.51 0.66009 2.0963 1.0673 3.8928 2.6823 4.8076 4.4749 0.27162 0.53229 0.34427 0.55362 0.46208 1.496 6.2e-4 0.81128-0.23775 0.95863-0.39487 1.0738-0.41678 0.38512-1.6807-0.39249-3.403-1.9618-1.1573-1.0545-2.0599-1.6853-3.2226-2.2523-3.5874-1.7494-8.2329-1.8655-12.113-0.3027-1.798 0.72421-2.9748 1.5327-4.5078 3.0968-0.63978 0.74637-1.2883 1.2553-1.4584 1.3567-0.57943 0.39353-0.87014 0.24782-1.0488-2e-3z" opacity=".96"/>
   </g>
  </g>
 </g>
</svg>
